# xmcd
#
# Track frame offsets: 
#        150
#        14230
#        24070
#        34272
#        44345
#        55677
#        66075
#        73897
#        81757
#        91060
#        102870
#        113560
#        124612
#        135077
#        147967
#        160750
#        173310
#        182185
#        195130
#        208432
#
# Disc length: 2931 seconds
#
# Revision: 2
# Processed by: cddbd v1.5.2PL0 Copyright (c) Steve Scherf et al.
# Submitted via: ExactAudioCopy v1.0b4
#
DISCID=030b7114
DTITLE=Jim Reeves - The Definitive CD 2
DYEAR=1992
DGENRE=Country
TTITLE0=I Fall to Pieces
TTITLE1=When Two Worlds Collide
TTITLE2=Is It Really Over?
TTITLE3=Blue Boy
TTITLE4=Moonlight and Roses (Bring Mem'ries Of You)
TTITLE5=Am I Losing You
TTITLE6=You are My Love
TTITLE7=Trying to Forget
TTITLE8=You're Free to Go
TTITLE9=Have You Ever Been Lonely? (Have You Ever Been Blue)
TTITLE10=Memories are Made of This
TTITLE11=That's When I See The Blues (In Your Pretty Brown Eyes)
TTITLE12=I'm Getting Better
TTITLE13=Roses are Red (My Love)
TTITLE14=Goodnight Irene
TTITLE15=Nobody's Fool
TTITLE16=After Loving You
TTITLE17=Where Does A Broken Heart Go
TTITLE18=Danny Boy
TTITLE19=Adios Amigo
EXTD=
EXTT0=
EXTT1=
EXTT2=
EXTT3=
EXTT4=
EXTT5=
EXTT6=
EXTT7=
EXTT8=
EXTT9=
EXTT10=
EXTT11=
EXTT12=
EXTT13=
EXTT14=
EXTT15=
EXTT16=
EXTT17=
EXTT18=
EXTT19=
PLAYORDER=
